#!OML:ASF F:\VICON\USERDATA\INSTALL\rory3\rory3.ASF
:FULLY-SPECIFIED
:DEGREES
385
root 1.02085 18.0437 44.7112 -3.37951 -4.09748 0.0252786
lowerback 10.304 0.791908 0.20198
upperback 1.41716 1.12798 1.19144
thorax -4.32067 0.562025 0.969606
lowerneck -14.5779 -2.77487 -2.06679
upperneck 19.3414 -3.38751 0.167708
head 8.46482 -1.73486 0.00860261
rclavicle -2.05494e-014 -3.57812e-015
rhumerus -27.9318 -15.5587 -79.0483
rradius 29.6321
rwrist 4.32351
rhand -14.5173 20.6276
rfingers 7.12502
rthumb 11.6302 -9.02968
lclavicle -2.05494e-014 -3.57812e-015
lhumerus -34.3063 0.687865 82.7018
lradius 23.6462
lwrist -3.45709
lhand -20.0512 29.6819
lfingers 7.12502
lthumb 6.29038 59.5685
rfemur -19.4013 -2.61652 21.5176
rtibia 75.5374
rfoot -0.0703744 -7.35429
rtoes 2.9207
lfemur -11.2558 -4.10735 -23.4929
ltibia 33.3528
lfoot -14.9513 3.94386
ltoes -2.04297
386
root 1.01863 18.0598 44.8634 -3.18951 -4.04706 -0.509377
lowerback 10.0493 0.655052 0.624768
upperback 1.52931 0.998736 1.4323
thorax -4.05721 0.493178 1.00306
lowerneck -15.066 -3.02768 -2.70097
upperneck 19.3981 -3.73166 0.897518
head 8.60488 -1.86498 0.309479
rclavicle -3.3048e-015 -7.95139e-015
rhumerus -28.136 -15.6348 -79.0692
rradius 30.1752
rwrist 4.26476
rhand -14.2011 20.1874
rfingers 7.12502
rthumb 11.9352 -9.45238
lclavicle -3.3048e-015 -7.95139e-015
lhumerus -33.4904 -0.395617 82.8821
lradius 23.5572
lwrist -2.82618
lhand -20.6716 29.3978
lfingers 7.12502
lthumb 5.69139 59.3013
rfemur -20.7444 -2.74009 22.3075
rtibia 75.1443
rfoot -0.28188 -7.27414
rtoes 4.61724
lfemur -11.1988 -4.15545 -22.9386
ltibia 33.2162
lfoot -15.0091 3.74197
ltoes -0.825324
387
root 1.03902 18.0495 45.0263 -3.02147 -3.70198 -0.0453017
lowerback 9.73876 0.474547 0.416563
upperback 1.57252 0.727947 1.33304
thorax -3.83709 0.361536 1.05535
lowerneck -15.104 -2.63634 -2.04896
upperneck 19.6123 -3.13012 -0.10088
head 8.6444 -1.63905 -0.0642224
rclavicle 8.89561e-015 9.54166e-015
rhumerus -28.4235 -15.5915 -79.0497
rradius 30.6138
rwrist 3.98617
rhand -13.7907 19.7659
rfingers 7.12502
rthumb 12.3309 -9.8505
lclavicle 8.89561e-015 9.54166e-015
lhumerus -32.9066 -1.46535 83.0953
lradius 23.722
lwrist -2.00298
lhand -21.3467 29.4575
lfingers 7.12502
lthumb 5.03962 59.3776
rfemur -21.9487 -3.3171 21.6931
rtibia 74.804
rfoot -1.47082 -6.7761
rtoes 5.26865
lfemur -10.4722 -4.38923 -23.6684
ltibia 33.0718
lfoot -15.579 4.17573
ltoes -1.82587
388
root 1.02649 18.0515 45.207 -3.14974 -4.0285 0.0819851
lowerback 9.67675 0.565416 0.124779
upperback 1.6536 0.818538 1.38246
thorax -3.72459 0.410025 1.26007
lowerneck -15.5062 -2.77006 -2.098
upperneck 19.7683 -3.29626 -0.0915843
head 8.77347 -1.71889 -0.0802289
rclavicle -5.56597e-015 7.95139e-016
rhumerus -28.7254 -15.6656 -79.0042
rradius 30.7949
rwrist 3.70374
rhand -13.5944 19.4057
rfingers 7.12502
rthumb 12.5202 -10.1992
lclavicle -5.56597e-015 7.95139e-016
lhumerus -32.4235 -2.19985 83.0844
lradius 24.0116
lwrist -1.63138
lhand -21.2796 29.5522
lfingers 7.12502
lthumb 5.10435 59.4707
rfemur -22.79 -3.03406 21.7489
rtibia 74.2531
rfoot -2.59205 -6.60937
rtoes 4.50666
lfemur -9.78881 -4.21825 -23.8559
ltibia 32.9871
lfoot -15.9425 4.3407
ltoes -0.932047
389
root 1.03554 18.0314 45.3635 -3.20792 -3.59198 0.68424
lowerback 9.71801 0.382602 -0.33794
upperback 1.57769 0.522258 1.21239
thorax -3.82235 0.268785 1.38171
lowerneck -15.1596 -2.79861 -2.20358
upperneck 19.5036 -3.3825 0.201835
head 8.62857 -1.73717 0.0331282
rclavicle 8.00108e-015 1.19271e-014
rhumerus -29.2053 -15.5112 -79.0102
rradius 31.0153
rwrist 3.43448
rhand -13.5637 19.3539
rfingers 7.12502
rthumb 12.5498 -10.2492
lclavicle 8.00108e-015 1.19271e-014
lhumerus -32.2756 -2.88479 82.9347
lradius 24.5976
lwrist -1.29022
lhand -21.4765 29.4147
lfingers 7.12502
lthumb 4.91423 59.3377
rfemur -23.7337 -3.60598 21.0336
rtibia 73.7282
rfoot -3.94103 -6.19042
rtoes 3.60876
lfemur -8.87542 -4.23508 -24.7131
ltibia 32.9342
lfoot -16.4239 4.74212
ltoes -3.52614
